/* XPM */
static char *_2c0f960c6964a6098acebea408102cc98KmNzMTxNkPLD0y[] = {
/* columns rows colors chars-per-pixel */
"32 32 5 1 ",
"  c None",
". c black",
"X c gray20",
"o c red",
"O c white",
/* pixels */
"                                ",
"                                ",
"                                ",
"                                ",
"                                ",
"                                ",
"                                ",
"................................",
"................................",
"................................",
".XXXXXXXX..............XXXXXXXX.",
".XXOOOOOX..............XOOOOOXX.",
".XOOOO..XOOOOOOOOOOOOOOX..OOOOX.",
".XOO.....OooooooooooooO.....OOX.",
".XOO.....OOOOOOOOOOOOOO.....OOX.",
".XO....O.OOOOOOOOOOOOOO.O....OX.",
".XO...OO.OOOOOOOOOOOOOO.OO...OX.",
".XO....O.OOOOOOOOOOOOOO.O....OX.",
".XOO.....OOOOOOOOOOOOOO.....OOX.",
".XOO.....OOOOOOOOOOOOOO.....OOX.",
".XOOOO....................OOOOX.",
".XXOOOOO................OOOOOXX.",
".XXXXXXX................XXXXXXX.",
"................................",
"................................",
"                                ",
"                                ",
"                                ",
"                                ",
"                                ",
"                                ",
"                                "
};
