/* XPM */
static char *exit[] = {
/* columns rows colors chars-per-pixel */
"32 32 3 1 ",
"  c None",
". c #CDDC39",
"X c #FFEB3B",
/* pixels */
"                                ",
"                                ",
"        ..                      ",
"        .X..                    ",
"        .XXX..                  ",
"        .XXXXX..                ",
"        .XXXXXXX..              ",
"        .XXXXXXXXX..            ",
"        .XXXXXXXXXXX..          ",
"        .XXXXXXXXXXXXX..        ",
"        .XXXXXXXXXXXXXX..       ",
"        .XXXXXXXXXX....         ",
"        .XXXXXX....             ",
"        .XX....                 ",
"        ...                     ",
"        .                       ",
"        .                       ",
"        .                       ",
"        .                       ",
"        .                       ",
"        .                       ",
"        .                       ",
"        .                       ",
"        .                       ",
"        .                       ",
"                                ",
"                                ",
"                                ",
"                                ",
"                                ",
"                                ",
"                                "
};
